<?xml version="1.0" encoding="UTF-8"?>
<svg width="25px" height="23px" viewBox="0 0 25 23" version="1.1" xmlns="http://www.w3.org/2000/svg" xmlns:xlink="http://www.w3.org/1999/xlink">
    <!-- Generator: Sketch 46.2 (44496) - http://www.bohemiancoding.com/sketch -->
    <title>Shape</title>
    <desc>Created with Sketch.</desc>
    <defs></defs>
    <g id="Page-1" stroke="none" stroke-width="1" fill="none" fill-rule="evenodd">
        <g id="Comp-13-Copy" transform="translate(-210.000000, -1599.000000)" fill="#FFFFFF">
            <g id="Group-9" transform="translate(195.000000, 1412.000000)">
                <g id="Group-8" transform="translate(0.000000, 171.500000)">
                    <g id="Group-5-Copy">
                        <path d="M27.3515002,31.0542857 C28.9095143,29.5523571 29.8471357,26.9938571 29.8471357,24.5582143 C29.8471357,20.81875 28.8516943,17.7887857 24.3729898,17.7887857 C19.8942852,17.7887857 18.9004066,20.81875 18.9004066,24.5566786 C18.9004066,27.0015357 19.842716,29.5677143 21.4085436,31.0650357 C19.7833333,31.4520357 16.5751056,32.2552143 16.0891052,32.68675 C15.0483456,33.6081786 14.526403,35.9102143 15.5656,37.2908214 C15.5656,37.2908214 16.1578641,37.75 24.4151827,37.75 C32.6709386,37.75 33.1866303,37.2908214 33.1866303,37.2908214 C34.2180138,35.9102143 33.7023221,33.6081786 32.6709386,32.68675 C32.2005652,32.2675 28.9438938,31.43975 27.3515002,31.0542857 L27.3515002,31.0542857 Z M31.3738957,36.2158214 L24.2792276,36.1973929 C24.2792276,36.1973929 17.3611449,36.2142857 17.3580195,36.2158214 C15.9609637,35.729 16.6704305,33.7448571 17.601801,33.3363571 C18.3097051,33.0261429 21.0522475,32.2291071 22.4321136,31.8359643 L22.6212006,31.2186071 L22.6212006,30.1589643 C21.2710258,29.0394286 20.4677969,26.7251071 20.4677969,24.6088929 C20.4677969,21.6941071 21.1194437,19.3306429 24.3729898,19.3306429 C27.6280985,19.3306429 28.2781826,21.6925714 28.2781826,24.6088929 C28.2781826,26.7251071 27.4765164,29.0409643 26.124779,30.1589643 L26.124779,31.2170714 L26.3404319,31.91275 C27.9625168,32.3258571 30.7066219,33.0415 31.3754584,33.3348214 C32.2974528,33.7433214 32.5974916,35.7950357 31.3738957,36.2158214 L31.3738957,36.2158214 Z M38.9217475,30.3831786 C38.4576249,29.9685357 35.2837767,29.1576786 33.6695053,28.7660714 C35.1900146,27.3363214 36.0995073,24.9421429 36.0995073,22.6631429 C36.0995073,19.12025 35.104066,16.25 30.6237987,16.25 C29.204865,16.25 28.1641054,16.5648214 27.3655645,17.0716071 C28.4516426,17.1514643 29.3111288,17.4171429 29.9768399,17.8394643 C30.1893674,17.8179643 30.3847052,17.7826429 30.6253614,17.7826429 C33.8789074,17.7826429 34.5289915,19.9894643 34.5289915,22.71075 C34.5289915,24.6856786 33.7257626,26.8464286 32.3740252,27.8907143 L32.3740252,28.9150357 L32.5912408,29.61225 C34.211763,30.0238214 36.9558681,30.7394643 37.6247046,31.03125 C38.5498244,31.4382143 38.8483005,33.4914643 37.6247046,33.91225 L35.2353329,33.9061071 C35.324407,34.3929286 35.3353459,34.90125 35.2415838,35.3834643 C39.1202107,35.2575357 39.4390019,34.98725 39.4390019,34.98725 C40.4688227,33.6066429 39.953131,31.3046071 38.9217475,30.3831786 L38.9217475,30.3831786 Z" id="Shape"></path>
                    </g>
                </g>
            </g>
        </g>
    </g>
</svg>