<?xml version="1.0" encoding="UTF-8"?>
<svg width="15px" height="22px" viewBox="0 0 15 22" version="1.1" xmlns="http://www.w3.org/2000/svg" xmlns:xlink="http://www.w3.org/1999/xlink">
    <!-- Generator: Sketch 46.2 (44496) - http://www.bohemiancoding.com/sketch -->
    <title>Shape</title>
    <desc>Created with Sketch.</desc>
    <defs></defs>
    <g id="Page-1" stroke="none" stroke-width="1" fill="none" fill-rule="evenodd">
        <g id="Comp-13-Copy" transform="translate(-650.000000, -1705.000000)" fill="#FFFFFF">
            <g id="Group-9" transform="translate(195.000000, 1412.000000)">
                <g id="Group-6-Copy" transform="translate(435.000000, 276.500000)">
                    <g id="Group-5-Copy-2">
                        <path d="M32.6660898,25.525236 L33.6599095,16.75 L21.3537216,16.75 L22.3448148,25.5171729 C20.9065708,26.8636946 20,28.7531252 20,30.8629446 C20,34.9414807 23.3577203,38.25 27.5006809,38.25 C31.6436414,38.25 34.9999985,34.9414807 34.9999985,30.8629446 C35.0013617,28.7598444 34.0988807,26.8704138 32.6660898,25.525236 L32.6660898,25.525236 Z M29.5155857,18.093834 L32.2898288,18.093834 L31.3519029,24.553644 C30.7834216,24.2149978 30.1658628,23.9448872 29.5155857,23.7594381 L29.5155857,18.093834 L29.5155857,18.093834 Z M26.8204119,18.093834 L28.1482315,18.093834 L28.1482315,23.5202356 C27.9341989,23.501422 27.7201664,23.4745453 27.5006809,23.4745453 C27.2689259,23.4745453 27.0453505,23.5027658 26.8204119,23.5229233 L26.8204119,18.093834 L26.8204119,18.093834 Z M25.4530577,18.093834 L25.4530577,23.7688449 C24.8177765,23.954294 24.2165769,24.2190293 23.6590017,24.5482686 L22.7210758,18.093834 L25.4530577,18.093834 L25.4530577,18.093834 Z M27.5006809,36.8994468 C24.1211484,36.8994468 21.3687175,34.1902775 21.3687175,30.8629446 C21.3687175,27.5329239 24.1197851,24.8237546 27.5006809,24.8237546 C30.8815766,24.8237546 33.6326442,27.5342678 33.6326442,30.8629446 C33.6326442,34.1916214 30.8815766,36.8994468 27.5006809,36.8994468 L27.5006809,36.8994468 Z" id="Shape"></path>
                    </g>
                </g>
            </g>
        </g>
    </g>
</svg>