<?xml version="1.0" encoding="UTF-8"?>
<svg width="23px" height="22px" viewBox="0 0 23 22" version="1.1" xmlns="http://www.w3.org/2000/svg" xmlns:xlink="http://www.w3.org/1999/xlink">
    <!-- Generator: Sketch 46.2 (44496) - http://www.bohemiancoding.com/sketch -->
    <title>Shape</title>
    <desc>Created with Sketch.</desc>
    <defs></defs>
    <g id="Page-1" stroke="none" stroke-width="1" fill="none" fill-rule="evenodd">
        <g id="Comp-13-Copy" transform="translate(-211.000000, -1429.000000)" fill="#FFFFFF">
            <g id="Group-9" transform="translate(195.000000, 1412.000000)">
                <g id="Group-7">
                    <g id="Group-5">
                        <path d="M27.5,17 L16.75,29.09375 L20.78125,29.09375 L20.78125,38.5 L26.15625,38.5 L26.15625,37.828125 L26.15625,37.15625 L26.15625,33.796875 C26.15625,33.426 26.45725,33.125 26.828125,33.125 L28.171875,33.125 C28.54275,33.125 28.84375,33.426 28.84375,33.796875 L28.84375,37.15625 L28.84375,37.828125 L28.84375,38.5 L34.21875,38.5 L34.21875,29.09375 L38.25,29.09375 L27.5,17 L27.5,17 Z M32.875,27.75 L32.875,37.15625 L30.1875,37.15625 L30.1875,33.125 C30.1875,32.3819063 29.5868437,31.78125 28.84375,31.78125 L26.15625,31.78125 C25.4145,31.78125 24.8125,32.3819063 24.8125,33.125 L24.8125,37.15625 L22.125,37.15625 L22.125,27.75 L19.4375,27.75 L27.5,19.015625 L35.5625,27.75 L32.875,27.75 L32.875,27.75 Z" id="Shape"></path>
                    </g>
                </g>
            </g>
        </g>
    </g>
</svg>