<?xml version="1.0" encoding="UTF-8"?>
<svg width="16px" height="16px" viewBox="0 0 16 16" version="1.1" xmlns="http://www.w3.org/2000/svg" xmlns:xlink="http://www.w3.org/1999/xlink">
    <!-- Generator: Sketch 48.1 (47250) - http://www.bohemiancoding.com/sketch -->
    <title>icon-instagram</title>
    <desc>Created with Sketch.</desc>
    <defs></defs>
    <g id="Desktop-HD---Home-Copy-3" stroke="none" stroke-width="1" fill="none" fill-rule="evenodd" transform="translate(-1179.000000, -40.000000)">
        <g id="social" transform="translate(1179.000000, 40.000000)" fill="#FFFFFF">
            <path d="M9.53236607,9.53236607 C10.0346007,9.03013142 10.2857143,8.42411069 10.2857143,7.71428571 C10.2857143,7.00446074 10.0346007,6.39844001 9.53236607,5.89620536 C9.03013142,5.3939707 8.42411069,5.14285714 7.71428571,5.14285714 C7.00446074,5.14285714 6.39844001,5.3939707 5.89620536,5.89620536 C5.3939707,6.39844001 5.14285714,7.00446074 5.14285714,7.71428571 C5.14285714,8.42411069 5.3939707,9.03013142 5.89620536,9.53236607 C6.39844001,10.0346007 7.00446074,10.2857143 7.71428571,10.2857143 C8.42411069,10.2857143 9.03013142,10.0346007 9.53236607,9.53236607 Z M10.5167411,4.91183036 C11.2868342,5.68192349 11.671875,6.61606594 11.671875,7.71428571 C11.671875,8.81250549 11.2868342,9.74664794 10.5167411,10.5167411 C9.74664794,11.2868342 8.81250549,11.671875 7.71428571,11.671875 C6.61606594,11.671875 5.68192349,11.2868342 4.91183036,10.5167411 C4.14173722,9.74664794 3.75669643,8.81250549 3.75669643,7.71428571 C3.75669643,6.61606594 4.14173722,5.68192349 4.91183036,4.91183036 C5.68192349,4.14173722 6.61606594,3.75669643 7.71428571,3.75669643 C8.81250549,3.75669643 9.74664794,4.14173722 10.5167411,4.91183036 Z M12.4854911,2.94308036 C12.6662955,3.12388483 12.7566964,3.34151658 12.7566964,3.59598214 C12.7566964,3.8504477 12.6662955,4.06807945 12.4854911,4.24888393 C12.3046866,4.4296884 12.0870548,4.52008929 11.8325893,4.52008929 C11.5781237,4.52008929 11.360492,4.4296884 11.1796875,4.24888393 C10.998883,4.06807945 10.9084821,3.8504477 10.9084821,3.59598214 C10.9084821,3.34151658 10.998883,3.12388483 11.1796875,2.94308036 C11.360492,2.76227588 11.5781237,2.671875 11.8325893,2.671875 C12.0870548,2.671875 12.3046866,2.76227588 12.4854911,2.94308036 Z M8.47767857,1.38616071 L7.71428571,1.38616071 C7.66741048,1.38616071 7.41127465,1.38448662 6.94587054,1.38113839 C6.48046642,1.37779016 6.12723335,1.37779016 5.88616071,1.38113839 C5.64508808,1.38448662 5.32198863,1.39453117 4.91685268,1.41127232 C4.51171672,1.42801348 4.1668541,1.46149528 3.88225446,1.51171875 C3.59765483,1.56194222 3.3582599,1.62388356 3.1640625,1.69754464 C2.8292394,1.83147388 2.53459949,2.02566837 2.28013393,2.28013393 C2.02566837,2.53459949 1.83147388,2.8292394 1.69754464,3.1640625 C1.62388356,3.3582599 1.56194222,3.59765483 1.51171875,3.88225446 C1.46149528,4.1668541 1.42801348,4.51171672 1.41127232,4.91685268 C1.39453117,5.32198863 1.38448662,5.64508808 1.38113839,5.88616071 C1.37779016,6.12723335 1.37779016,6.48046642 1.38113839,6.94587054 C1.38448662,7.41127465 1.38616071,7.66741048 1.38616071,7.71428571 C1.38616071,7.76116095 1.38448662,8.01729678 1.38113839,8.48270089 C1.37779016,8.94810501 1.37779016,9.30133808 1.38113839,9.54241071 C1.38448662,9.78348335 1.39453117,10.1065828 1.41127232,10.5117187 C1.42801348,10.9168547 1.46149528,11.2617173 1.51171875,11.546317 C1.56194222,11.8309166 1.62388356,12.0703115 1.69754464,12.2645089 C1.83147388,12.599332 2.02566837,12.8939719 2.28013393,13.1484375 C2.53459949,13.4029031 2.8292394,13.5970975 3.1640625,13.7310268 C3.3582599,13.8046879 3.59765483,13.8666292 3.88225446,13.9168527 C4.1668541,13.9670761 4.51171672,14.000558 4.91685268,14.0172991 C5.32198863,14.0340403 5.64508808,14.0440848 5.88616071,14.047433 C6.12723335,14.0507813 6.48046642,14.0507813 6.94587054,14.047433 C7.41127465,14.0440848 7.66741048,14.0424107 7.71428571,14.0424107 C7.76116095,14.0424107 8.01729678,14.0440848 8.48270089,14.047433 C8.94810501,14.0507813 9.30133808,14.0507813 9.54241071,14.047433 C9.78348335,14.0440848 10.1065828,14.0340403 10.5117188,14.0172991 C10.9168547,14.000558 11.2617173,13.9670761 11.546317,13.9168527 C11.8309166,13.8666292 12.0703115,13.8046879 12.2645089,13.7310268 C12.599332,13.5970975 12.8939719,13.4029031 13.1484375,13.1484375 C13.4029031,12.8939719 13.5970975,12.599332 13.7310268,12.2645089 C13.8046879,12.0703115 13.8666292,11.8309166 13.9168527,11.546317 C13.9670761,11.2617173 14.000558,10.9168547 14.0172991,10.5117187 C14.0340403,10.1065828 14.0440848,9.78348335 14.047433,9.54241071 C14.0507813,9.30133808 14.0507813,8.94810501 14.047433,8.48270089 C14.0440848,8.01729678 14.0424107,7.76116095 14.0424107,7.71428571 C14.0424107,7.66741048 14.0440848,7.41127465 14.047433,6.94587054 C14.0507813,6.48046642 14.0507813,6.12723335 14.047433,5.88616071 C14.0440848,5.64508808 14.0340403,5.32198863 14.0172991,4.91685268 C14.000558,4.51171672 13.9670761,4.1668541 13.9168527,3.88225446 C13.8666292,3.59765483 13.8046879,3.3582599 13.7310268,3.1640625 C13.5970975,2.8292394 13.4029031,2.53459949 13.1484375,2.28013393 C12.8939719,2.02566837 12.599332,1.83147388 12.2645089,1.69754464 C12.0703115,1.62388356 11.8309166,1.56194222 11.546317,1.51171875 C11.2617173,1.46149528 10.9168547,1.42801348 10.5117188,1.41127232 C10.1065828,1.39453117 9.78348335,1.38448662 9.54241071,1.38113839 C9.30133808,1.37779016 8.94643092,1.37946425 8.47767857,1.38616071 Z M15.3783482,4.53013393 C15.4118305,5.11942259 15.4285714,6.1807959 15.4285714,7.71428571 C15.4285714,9.24777552 15.4118305,10.3091488 15.3783482,10.8984375 C15.3113836,12.2913016 14.8962092,13.3694158 14.1328125,14.1328125 C13.3694158,14.8962092 12.2913016,15.3113836 10.8984375,15.3783482 C10.3091488,15.4118305 9.24777552,15.4285714 7.71428571,15.4285714 C6.1807959,15.4285714 5.11942259,15.4118305 4.53013393,15.3783482 C3.13726982,15.3113836 2.0591556,14.8962092 1.29575893,14.1328125 C0.532362254,13.3694158 0.117187835,12.2913016 0.0502232143,10.8984375 C0.016740904,10.3091488 0,9.24777552 0,7.71428571 C0,6.1807959 0.016740904,5.11942259 0.0502232143,4.53013393 C0.117187835,3.13726982 0.532362254,2.0591556 1.29575893,1.29575893 C2.0591556,0.532362254 3.13726982,0.117187835 4.53013393,0.0502232143 C5.11942259,0.016740904 6.1807959,0 7.71428571,0 C9.24777552,0 10.3091488,0.016740904 10.8984375,0.0502232143 C12.2913016,0.117187835 13.3694158,0.532362254 14.1328125,1.29575893 C14.8962092,2.0591556 15.3113836,3.13726982 15.3783482,4.53013393 Z" id="icon-instagram"></path>
        </g>
    </g>
</svg>