<?xml version="1.0" encoding="UTF-8"?>
<svg width="16px" height="16px" viewBox="0 0 16 16" version="1.1" xmlns="http://www.w3.org/2000/svg" xmlns:xlink="http://www.w3.org/1999/xlink">
    <!-- Generator: Sketch 48.1 (47250) - http://www.bohemiancoding.com/sketch -->
    <title>icon-dribbble</title>
    <desc>Created with Sketch.</desc>
    <defs></defs>
    <g id="Desktop-HD---Home-Copy-3" stroke="none" stroke-width="1" fill="none" fill-rule="evenodd" transform="translate(-1286.000000, -40.000000)">
        <g id="social" transform="translate(1179.000000, 40.000000)" fill="#FFFFFF" fill-rule="nonzero">
            <path d="M115,16 C110.5875,16 107,12.4125 107,8 C107,3.5875 110.5875,0 115,0 C119.4125,0 123,3.5875 123,8 C123,12.4125 119.4125,16 115,16 Z M121.747,9.094 C121.5125,9.019 119.6315,8.4595 117.491,8.8035 C118.385,11.2595 118.747,13.2595 118.819,13.6755 C120.3505,12.638 121.444,10.9975 121.747,9.094 Z M117.6685,14.3 C117.5655,13.7 117.1715,11.6125 116.212,9.1185 C116.1965,9.1245 116.1805,9.128 116.1685,9.134 C112.312,10.478 110.928,13.1495 110.806,13.3995 C111.9655,14.3025 113.4215,14.843 114.9995,14.843 C115.9465,14.843 116.8495,14.6495 117.6685,14.2995 L117.6685,14.3 Z M109.922,12.578 C110.0785,12.3125 111.9535,9.209 115.475,8.0685 C115.5625,8.0405 115.653,8.012 115.744,7.9875 C115.572,7.6 115.3845,7.2095 115.191,6.828 C111.7815,7.85 108.469,7.806 108.169,7.803 C108.166,7.8715 108.166,7.9405 108.166,8.0125 C108.166,9.7655 108.8315,11.3685 109.922,12.578 Z M108.3125,6.6095 C108.6185,6.6125 111.4345,6.625 114.631,5.7785 C113.5,3.766 112.278,2.0725 112.0965,1.8255 C110.184,2.7285 108.7525,4.491 108.312,6.61 L108.3125,6.6095 Z M113.4,1.3655 C113.5875,1.6185 114.8315,3.3095 115.95,5.3655 C118.3815,4.456 119.4095,3.0715 119.5315,2.8965 C118.325,1.8245 116.738,1.1745 115,1.1745 C114.45,1.1775 113.9125,1.2435 113.4,1.365 L113.4,1.3655 Z M120.2905,3.6905 C120.1465,3.8845 119,5.353 116.475,6.3845 C116.6345,6.7095 116.7875,7.041 116.928,7.375 C116.978,7.494 117.028,7.6095 117.075,7.728 C119.35,7.4435 121.6095,7.9 121.8345,7.947 C121.819,6.3345 121.2405,4.853 120.291,3.691 L120.2905,3.6905 Z" id="icon-dribbble"></path>
        </g>
    </g>
</svg>